<svg width="75" height="90" viewBox="0 0 75 90" fill="none" xmlns="http://www.w3.org/2000/svg">
<path fill-rule="evenodd" clip-rule="evenodd" d="M36.6876 0.0581642C31.6229 0.80718 26.3819 3.31263 21.7631 7.19306C19.7976 8.84438 16.6464 12.0663 15.1775 13.9266C13.9695 15.4563 12.099 18.2291 11.9431 18.721C11.8895 18.8899 11.2722 19.2954 10.5712 19.6222C9.63431 20.0589 8.9671 20.5476 8.05301 21.466C6.58812 22.9382 5.84084 24.341 5.42032 26.4073C4.95783 28.6804 5.31532 30.3932 6.54475 31.7951L7.09187 32.419L5.28723 34.2471C1.22775 38.3597 -0.390954 42.2616 0.0787311 46.802C0.406369 49.968 1.17226 52.2165 2.54181 54.0327L3.24116 54.9599L2.80396 56.4701C1.56329 60.7564 1.92077 64.0327 3.89643 66.4811C5.42506 68.3756 7.89165 69.9743 10.5324 70.7826L11.7548 71.1567L12.5386 72.8644C14.259 76.6128 16.2747 79.7152 18.5789 82.1613C21.6472 85.4185 25.1358 87.2929 28.7239 87.6122L29.8905 87.7159L29.9963 88.3791C30.0685 88.8309 30.2834 89.1949 30.6707 89.5212L31.2391 90L33.5245 89.9042C38.3486 89.7019 43.2715 87.8122 47.9249 84.3765C51.3293 81.863 56.1452 76.4717 58.5001 72.5376L59.3131 71.1795L60.4668 70.867C63.0888 70.157 66.1808 68.1446 67.5785 66.2386C69.3575 63.812 69.6474 60.5518 68.4416 56.5311L67.9865 55.0137L68.7061 54.0596C69.5677 52.9171 70.3239 51.2878 70.7713 49.6108C71.0313 48.6357 71.0989 47.7602 71.097 45.392C71.0945 42.4464 71.0864 42.382 70.5218 40.8954C69.679 38.676 68.117 36.3795 66.0203 34.2775L64.2269 32.4794L64.7286 31.9985C65.4667 31.2904 66.131 29.7509 66.2286 28.5222C66.2979 27.6487 66.2117 27.1577 65.7392 25.7335C65.4239 24.7829 64.8759 23.5568 64.5214 23.0089C63.6229 21.6202 62.0912 20.2814 60.5778 19.5625C59.6174 19.1063 59.0486 18.6811 58.3186 17.8735C56.66 16.0385 56.37 14.9727 57.3625 14.3607C57.8712 14.0469 60.1552 13.2353 60.1985 13.3529C60.5869 14.4039 61.5746 15.9272 62.334 16.6464C65.3287 19.4819 69.8586 19.4127 72.7812 16.4868C76.9314 12.3318 74.9793 5.36139 69.2539 3.89184C67.2399 3.37503 64.8046 3.84279 63.1094 5.07223L62.3666 5.61101L60.4856 4.71679C56.0449 2.60563 51.4401 1.22309 46.0813 0.391978C44.3176 0.118458 37.8375 -0.111819 36.6876 0.0581642ZM45.9579 4.24763C49.5712 4.83035 53.0437 5.76833 56.0996 6.98722C58.2908 7.86122 60.3035 8.86723 60.3035 9.08854C60.3035 9.33306 59.8247 9.5338 58.6355 9.78763C56.3396 10.2775 54.3363 11.5036 53.4974 12.9326C53.0748 13.6522 53.0172 13.9309 53.0193 15.245C53.0214 16.5319 53.0888 16.8672 53.5051 17.6621L53.9885 18.5849H35.2859C24.9996 18.5849 16.5834 18.5419 16.5834 18.4893C16.5834 18.2956 18.4047 15.9874 19.861 14.3357C24.5608 9.00487 30.2695 5.35471 35.8975 4.08204C37.378 3.74734 43.4776 3.84772 45.9579 4.24763ZM68.9965 7.83837C71.2378 8.85774 71.8746 11.7661 70.2598 13.6074C68.4787 15.6384 65.2887 15.1628 64.1481 12.6962C62.7629 9.70097 65.9877 6.46989 68.9965 7.83837ZM58.9208 23.0256C60.7441 23.9221 62.1084 25.8965 62.3633 28.0082C62.4383 28.629 62.3761 28.8134 61.9182 29.3266L61.3858 29.923L35.9558 29.9654C15.989 29.9986 10.4351 29.9608 10.1036 29.7896C9.87152 29.6695 9.51983 29.3531 9.32195 29.0864C8.98606 28.6334 8.9764 28.5197 9.17481 27.3611C9.4338 25.8487 9.73229 25.2285 10.6766 24.2394C11.5043 23.3724 12.4245 22.8459 13.4833 22.6332C13.8847 22.5527 24.05 22.4988 36.0731 22.5133L57.9332 22.5401L58.9208 23.0256ZM57.4356 34.8889C58.8451 38.063 59.8346 42.3625 59.8528 45.392C59.8639 47.1998 59.8293 47.4 59.3234 48.4687C58.3338 50.5592 56.4943 51.951 54.182 52.3588C52.5751 52.6422 50.4049 52.32 47.9655 51.436C41.6187 49.1358 39.8771 48.757 35.6341 48.7539C31.3127 48.7505 29.9401 49.0495 23.3028 51.4404C20.8613 52.3198 18.6867 52.641 17.0862 52.3588C14.7608 51.9487 12.9456 50.5843 11.9631 48.5078C11.426 47.3727 11.4044 47.2414 11.4224 45.2162C11.4497 42.1606 12.3973 38.0505 13.7833 34.9768L14.2788 33.8781H35.6327H56.9868L57.4356 34.8889ZM9.05857 36.7058C8.2544 39.0469 7.46235 43.4793 7.4562 45.6715C7.44918 48.2119 8.52709 50.8833 10.3502 52.8436C11.6979 54.293 13.117 55.2097 14.9016 55.784C16.1014 56.17 16.6311 56.2389 18.3392 56.2315C20.9232 56.2203 22.1265 55.9547 26.0849 54.5213C27.8604 53.8785 30.0242 53.2033 30.8934 53.0212C34.1698 52.3344 38.1501 52.4119 41.2424 53.2228C41.9507 53.4084 43.8626 54.0443 45.491 54.6356C49.1433 55.9619 50.3576 56.2238 52.9291 56.2398C54.7283 56.251 55.1117 56.196 56.4484 55.7337C58.3024 55.0925 59.6156 54.2348 60.9813 52.7732C62.6994 50.9346 63.8036 48.1903 63.8122 45.739C63.8191 43.7525 63.1197 39.6987 62.3261 37.1229C62.0912 36.3611 61.924 35.713 61.9544 35.6826C61.9847 35.6521 62.7273 36.3788 63.6045 37.2975C66.7346 40.5755 67.7253 43.0857 67.3251 46.726C67.0133 49.5632 66.2052 51.44 64.799 52.5939C63.4454 53.7041 63.4294 53.9226 64.4872 56.818C65.4228 59.3797 65.5933 61.6473 64.9635 63.1562C64.4345 64.4241 62.4277 66.0907 60.5845 66.7933C60.092 66.9809 59.1514 67.2374 58.4943 67.3631C57.8371 67.4886 57.1437 67.7326 56.9534 67.9052C56.7629 68.0776 56.1211 69.0356 55.527 70.0343C52.3605 75.356 47.4649 80.4259 42.8892 83.1219C41.6494 83.8523 38.1474 85.3758 37.6972 85.3806C37.5515 85.3822 37.4777 85.0958 37.4777 84.5277C37.4777 83.5095 37.0509 82.8644 36.1888 82.5795C35.6796 82.4114 35.3915 82.4682 33.8649 83.0384C32.2038 83.6591 32.0201 83.6897 29.9277 83.696C27.9432 83.702 27.6174 83.6568 26.5282 83.2249C22.3913 81.5842 18.247 76.6937 15.6208 70.3533C14.6669 68.0504 14.2163 67.557 12.9089 67.3833C10.8525 67.1101 8.52761 65.9049 7.13067 64.3876C6.35056 63.5403 5.8728 62.2527 5.8728 60.9974C5.8728 59.8267 6.3639 57.6932 7.03358 55.9545C7.76909 54.0448 7.68973 53.6175 6.39586 52.5251C4.9545 51.3085 4.12487 49.2197 3.84183 46.0951C3.65009 43.9782 4.25023 41.8346 5.61399 39.7655C6.26997 38.77 9.19307 35.5614 9.32423 35.6929C9.35777 35.7265 9.2382 36.1823 9.05857 36.7058ZM25.1392 37.6271C23.5463 38.1231 22.5532 39.5053 22.5532 41.2264C22.5532 42.539 23.0652 43.5556 24.1073 44.3113C24.8082 44.8196 24.9822 44.8646 26.2425 44.8646C27.4879 44.8646 27.6851 44.8152 28.3746 44.3299C30.2887 42.9832 30.5794 40.4938 29.0287 38.7299C27.9968 37.5564 26.62 37.166 25.1392 37.6271ZM43.6799 37.6717C43.2766 37.8203 42.6327 38.2828 42.249 38.6994C40.6488 40.4373 40.9713 43.0665 42.9451 44.3742C43.5931 44.8035 43.8525 44.8646 45.0278 44.8646C46.17 44.8646 46.4672 44.7991 47.0187 44.4252C48.8862 43.1595 49.301 40.4693 47.8877 38.788C46.9332 37.6522 45.0728 37.1586 43.6799 37.6717ZM26.8374 56.8004C25.6436 57.9955 26.2827 59.5343 28.7502 61.4054C33.2141 64.7903 39.386 64.4804 43.3621 60.6718C45.176 58.9342 45.4763 57.847 44.4308 56.8004C44.0033 56.3723 43.676 56.2027 43.278 56.2027C42.5138 56.2027 42.1103 56.4504 40.9894 57.607C40.371 58.2453 39.583 58.82 38.7983 59.2049C37.6286 59.7789 37.4849 59.8063 35.6378 59.8063C33.8196 59.8063 33.63 59.7718 32.5005 59.2362C31.7019 58.8576 30.9576 58.3177 30.2836 57.6281C29.1063 56.4235 28.7511 56.2027 27.9903 56.2027C27.5922 56.2027 27.265 56.3723 26.8374 56.8004Z" fill="black"/>
</svg>
